<svg width="356" height="41" viewBox="0 0 356 41" fill="none" xmlns="http://www.w3.org/2000/svg">
<path d="M4.32796 8.36802L0.823958 7.69602V4.33602H8.31196C9.36796 4.33602 10.792 4.27202 12.584 4.14402C13 4.11202 13.624 4.08002 14.456 4.04802C15.32 4.01602 16.088 4.00001 16.76 4.00001C22.584 4.00001 26.968 5.45601 29.912 8.36802C32.856 11.28 34.328 15.456 34.328 20.896C34.328 24.64 33.608 27.984 32.168 30.928C30.728 33.872 28.664 36.192 25.976 37.888C23.288 39.552 20.12 40.384 16.472 40.384C15.48 40.384 13.992 40.32 12.008 40.192C10.152 40.064 8.95196 40 8.40796 40H0.631958V36.832L4.32796 36.304V8.36802ZM12.44 36.448C13.56 36.8 14.84 36.944 16.28 36.88C19.16 36.848 21.384 35.632 22.952 33.232C24.552 30.8 25.352 27.088 25.352 22.096C25.352 17.488 24.568 13.888 23 11.296C21.464 8.67202 19.032 7.36002 15.704 7.36002C14.936 7.36002 14.248 7.40802 13.64 7.50401C13.032 7.60002 12.632 7.66402 12.44 7.69602V36.448Z" fill="#141414"/>
<path d="M36.9533 32.32C36.9533 29.504 38.3773 27.344 41.2253 25.84C44.1053 24.336 47.8813 23.568 52.5533 23.536V22.576C52.5533 21.424 52.4253 20.512 52.1693 19.84C51.9133 19.168 51.4493 18.672 50.7773 18.352C50.1053 18 49.1133 17.824 47.8013 17.824C46.2333 17.824 44.8253 18.016 43.5773 18.4C42.3613 18.752 41.0813 19.232 39.7373 19.84L38.1053 16.384C38.6173 15.968 39.4493 15.472 40.6013 14.896C41.7533 14.288 43.1293 13.776 44.7293 13.36C46.3613 12.912 48.0573 12.688 49.8173 12.688C52.3773 12.688 54.3773 13.024 55.8173 13.696C57.2893 14.368 58.3293 15.408 58.9373 16.816C59.5773 18.224 59.8973 20.144 59.8973 22.576V36.832H62.3933V39.856C61.6573 40.016 60.6333 40.176 59.3213 40.336C58.0093 40.496 56.8893 40.576 55.9613 40.576C54.7453 40.576 53.9293 40.4 53.5133 40.048C53.1293 39.696 52.9373 38.992 52.9373 37.936V36.832C52.1373 37.792 51.0653 38.656 49.7213 39.424C48.3773 40.16 46.8253 40.528 45.0653 40.528C43.5613 40.528 42.1853 40.208 40.9373 39.568C39.7213 38.896 38.7453 37.952 38.0093 36.736C37.3053 35.488 36.9533 34.016 36.9533 32.32ZM48.8093 36.112C49.3853 36.112 50.0253 35.952 50.7293 35.632C51.4333 35.28 52.0413 34.864 52.5533 34.384V26.752C50.0573 26.752 48.2013 27.2 46.9853 28.096C45.8013 28.992 45.2093 30.144 45.2093 31.552C45.2093 32.992 45.5293 34.112 46.1693 34.912C46.8093 35.712 47.6893 36.112 48.8093 36.112Z" fill="#141414"/>
<path d="M67.6883 18.352L64.8563 17.488V13.744L73.5923 12.688H73.7363L74.9843 13.696V15.472L74.9363 16.576C76.0563 15.52 77.4803 14.624 79.2083 13.888C80.9363 13.152 82.7443 12.784 84.6323 12.784C86.5523 12.784 88.0563 13.136 89.1443 13.84C90.2643 14.512 91.0643 15.6 91.5443 17.104C92.0563 18.608 92.3123 20.656 92.3123 23.248V36.4L95.0003 36.784V40H81.9443V36.832L84.2963 36.4V23.296C84.2963 21.76 84.1843 20.576 83.9603 19.744C83.7683 18.88 83.4163 18.256 82.9043 17.872C82.3923 17.488 81.6563 17.296 80.6963 17.296C79.2243 17.296 77.5603 17.984 75.7043 19.36V36.4L78.3443 36.832V40H65.0483V36.832L67.6883 36.4V18.352Z" fill="#141414"/>
<path d="M104.044 9.18402C102.796 9.18402 101.788 8.81602 101.02 8.08002C100.252 7.34402 99.8678 6.40002 99.8678 5.24802C99.8678 3.90402 100.284 2.80002 101.116 1.93602C101.98 1.07201 103.132 0.640015 104.572 0.640015C106.012 0.640015 107.116 1.00801 107.884 1.74401C108.652 2.48001 109.036 3.42402 109.036 4.57602C109.036 5.95201 108.604 7.07201 107.74 7.93602C106.876 8.76802 105.66 9.18402 104.092 9.18402H104.044ZM101.116 18.352L97.8998 17.44V13.84L107.5 12.688H107.596L109.084 13.696V36.4L111.964 36.832V40H98.1398V36.832L101.116 36.4V18.352Z" fill="#141414"/>
<path d="M117.793 5.34401L114.433 4.72002V1.79201L124.033 0.640015H124.177L125.569 1.64802V36.4L128.689 36.832V40H114.721V36.832L117.793 36.4V5.34401Z" fill="#141414"/>
<path d="M131.941 26.8C131.941 23.728 132.549 21.136 133.765 19.024C134.981 16.88 136.613 15.28 138.661 14.224C140.741 13.168 143.013 12.64 145.477 12.64C149.509 12.64 152.661 13.856 154.933 16.288C157.237 18.688 158.389 22.048 158.389 26.368C158.389 29.536 157.781 32.176 156.565 34.288C155.349 36.4 153.717 37.968 151.669 38.992C149.621 40.016 147.333 40.528 144.805 40.528C140.805 40.528 137.653 39.328 135.349 36.928C133.077 34.496 131.941 31.12 131.941 26.8ZM145.285 37.168C146.821 37.168 147.957 36.352 148.693 34.72C149.461 33.056 149.845 30.464 149.845 26.944C149.845 23.2 149.477 20.448 148.741 18.688C148.037 16.896 146.837 16 145.141 16C142.005 16 140.437 19.408 140.437 26.224C140.437 29.936 140.821 32.688 141.589 34.48C142.357 36.272 143.589 37.168 145.285 37.168Z" fill="#141414"/>
<path d="M186.417 40.528C184.657 40.528 183.025 40.384 181.521 40.096C180.049 39.808 178.497 39.424 176.865 38.944C175.809 38.624 175.041 38.448 174.561 38.416L174.993 29.44H179.457L180.657 35.584C181.009 36 181.649 36.368 182.577 36.688C183.537 37.008 184.673 37.168 185.985 37.168C187.937 37.168 189.393 36.736 190.353 35.872C191.345 35.008 191.841 33.824 191.841 32.32C191.841 31.264 191.521 30.352 190.881 29.584C190.273 28.784 189.409 28.064 188.289 27.424C187.201 26.752 185.697 25.984 183.777 25.12C181.249 23.968 179.105 22.512 177.345 20.752C175.617 18.96 174.753 16.608 174.753 13.696C174.753 11.904 175.217 10.272 176.145 8.80002C177.073 7.32802 178.481 6.14402 180.369 5.24802C182.257 4.35202 184.609 3.90402 187.425 3.90402C189.121 3.90402 190.593 4.01602 191.841 4.24001C193.121 4.46402 194.481 4.76802 195.921 5.15202C196.689 5.40802 197.281 5.55202 197.697 5.58402L197.409 14.128H193.041L191.937 8.22401C191.713 7.93602 191.201 7.68002 190.401 7.45602C189.633 7.20002 188.769 7.07201 187.809 7.07201C186.049 7.07201 184.721 7.48802 183.825 8.32002C182.961 9.15202 182.529 10.224 182.529 11.536C182.529 12.688 182.897 13.696 183.633 14.56C184.369 15.424 185.249 16.16 186.273 16.768C187.329 17.344 188.929 18.16 191.073 19.216C192.769 20.048 194.241 20.896 195.489 21.76C196.769 22.592 197.857 23.68 198.753 25.024C199.649 26.368 200.097 27.936 200.097 29.728C200.097 31.488 199.665 33.184 198.801 34.816C197.969 36.448 196.529 37.808 194.481 38.896C192.433 39.984 189.745 40.528 186.417 40.528Z" fill="#141414"/>
<path d="M209.091 9.18402C207.843 9.18402 206.835 8.81602 206.067 8.08002C205.299 7.34402 204.915 6.40002 204.915 5.24802C204.915 3.90402 205.331 2.80002 206.163 1.93602C207.027 1.07201 208.179 0.640015 209.619 0.640015C211.059 0.640015 212.163 1.00801 212.931 1.74401C213.699 2.48001 214.083 3.42402 214.083 4.57602C214.083 5.95201 213.651 7.07201 212.787 7.93602C211.923 8.76802 210.707 9.18402 209.139 9.18402H209.091ZM206.163 18.352L202.947 17.44V13.84L212.547 12.688H212.643L214.131 13.696V36.4L217.011 36.832V40H203.187V36.832L206.163 36.4V18.352Z" fill="#141414"/>
<path d="M222.84 5.34401L219.48 4.72002V1.79201L229.08 0.640015H229.224L230.616 1.64802V36.4L233.736 36.832V40H219.768V36.832L222.84 36.4V5.34401Z" fill="#141414"/>
<path d="M234.396 13.312H248.028V16.384L245.004 16.96L249.036 29.632L250.284 34L251.292 29.68L255.276 16.96L252.348 16.384V13.312H263.436V16.384L260.94 16.96L252.204 40.384H245.772L236.268 16.96L234.396 16.384V13.312Z" fill="#141414"/>
<path d="M276.744 40.528C272.36 40.528 269.112 39.296 267 36.832C264.888 34.336 263.832 30.944 263.832 26.656C263.832 23.744 264.376 21.232 265.464 19.12C266.552 17.008 268.072 15.408 270.024 14.32C272.008 13.2 274.328 12.64 276.984 12.64C280.344 12.64 282.904 13.488 284.664 15.184C286.456 16.88 287.384 19.28 287.448 22.384C287.448 24.432 287.304 26.08 287.016 27.328H271.992C272.152 30.048 272.808 32.128 273.96 33.568C275.144 34.976 276.792 35.68 278.904 35.68C280.088 35.68 281.32 35.488 282.6 35.104C283.912 34.688 284.968 34.224 285.768 33.712L287.112 36.64C286.28 37.568 284.856 38.448 282.84 39.28C280.856 40.112 278.824 40.528 276.744 40.528ZM279.816 24.16L279.864 22.144C279.864 20.128 279.592 18.592 279.048 17.536C278.504 16.48 277.576 15.952 276.264 15.952C274.92 15.952 273.88 16.544 273.144 17.728C272.408 18.88 272.008 21.024 271.944 24.16H279.816Z" fill="#141414"/>
<path d="M296.794 9.18402C295.546 9.18402 294.538 8.81602 293.77 8.08002C293.002 7.34402 292.618 6.40002 292.618 5.24802C292.618 3.90402 293.034 2.80002 293.866 1.93602C294.73 1.07201 295.882 0.640015 297.322 0.640015C298.762 0.640015 299.866 1.00801 300.634 1.74401C301.402 2.48001 301.786 3.42402 301.786 4.57602C301.786 5.95201 301.354 7.07201 300.49 7.93602C299.626 8.76802 298.41 9.18402 296.842 9.18402H296.794ZM293.866 18.352L290.65 17.44V13.84L300.25 12.688H300.346L301.834 13.696V36.4L304.714 36.832V40H290.89V36.832L293.866 36.4V18.352Z" fill="#141414"/>
<path d="M308.095 36.832L311.023 36.4V18.352L308.191 17.488V13.744L316.159 12.688H316.303L317.647 13.696V14.848L317.503 18.832H317.647C317.871 18.096 318.383 17.248 319.183 16.288C319.983 15.296 320.991 14.448 322.207 13.744C323.455 13.008 324.799 12.64 326.239 12.64C327.071 12.64 327.711 12.752 328.159 12.976V21.328C327.647 20.944 327.087 20.64 326.479 20.416C325.903 20.192 325.151 20.08 324.223 20.08C323.071 20.08 322.031 20.24 321.103 20.56C320.175 20.848 319.439 21.184 318.895 21.568V36.4L324.175 36.88V40H308.095V36.832Z" fill="#141414"/>
<path d="M330.438 32.32C330.438 29.504 331.862 27.344 334.71 25.84C337.59 24.336 341.366 23.568 346.038 23.536V22.576C346.038 21.424 345.91 20.512 345.654 19.84C345.398 19.168 344.934 18.672 344.262 18.352C343.59 18 342.598 17.824 341.286 17.824C339.718 17.824 338.31 18.016 337.062 18.4C335.846 18.752 334.566 19.232 333.222 19.84L331.59 16.384C332.102 15.968 332.934 15.472 334.086 14.896C335.238 14.288 336.614 13.776 338.214 13.36C339.846 12.912 341.542 12.688 343.302 12.688C345.862 12.688 347.862 13.024 349.302 13.696C350.774 14.368 351.814 15.408 352.422 16.816C353.062 18.224 353.382 20.144 353.382 22.576V36.832H355.878V39.856C355.142 40.016 354.118 40.176 352.806 40.336C351.494 40.496 350.374 40.576 349.446 40.576C348.23 40.576 347.414 40.4 346.998 40.048C346.614 39.696 346.422 38.992 346.422 37.936V36.832C345.622 37.792 344.55 38.656 343.206 39.424C341.862 40.16 340.31 40.528 338.55 40.528C337.046 40.528 335.67 40.208 334.422 39.568C333.206 38.896 332.23 37.952 331.494 36.736C330.79 35.488 330.438 34.016 330.438 32.32ZM342.294 36.112C342.87 36.112 343.51 35.952 344.214 35.632C344.918 35.28 345.526 34.864 346.038 34.384V26.752C343.542 26.752 341.686 27.2 340.47 28.096C339.286 28.992 338.694 30.144 338.694 31.552C338.694 32.992 339.014 34.112 339.654 34.912C340.294 35.712 341.174 36.112 342.294 36.112Z" fill="#141414"/>
</svg>
